<svg version="1.2" baseProfile="tiny-ps" xmlns="http://www.w3.org/2000/svg" viewBox="0 0 1495 1580" width="1495" height="1580">
	<title>3ds-dark-svg</title>
	<style>
		tspan { white-space:pre }
		.shp0 { fill: #ffffff } 
	</style>
	<g id="Symbols">
		<g id="DESKTOP_menu_notif_final">
			<g id="MENU">
				<g id="logo">
					<path id="Fill-1" fill-rule="evenodd" class="shp0" d="M738.75 1.53C874.85 -4.9 1035.89 24.07 1065.88 120.01C1115.06 277.27 865.82 506.57 648.63 619.11C595.4 646.71 563.13 654.28 549.68 652.4C536.84 650.62 534.87 637.83 539.03 629.02C546.78 612.49 581.78 578.8 628.68 542.19C873.17 351.4 952.66 211.45 906.5 154.71C876.9 118.39 752.95 93.15 624.26 93.15C589.32 93.15 497.51 101.25 488.08 68.93C480.4 42.45 603.63 7.91 738.75 1.53ZM450.86 722.55C567.56 715.74 709.31 736.1 788.93 796.97C828.51 827.19 856.35 882.84 840.23 946.64C794.28 1127.71 622.76 1346.75 241.64 1515.08C120.46 1568.61 25.17 1589.09 5.17 1574.73C-16.33 1559.29 46.17 1439.81 64.98 1400.15C125.83 1271.71 201.84 1146.65 275.94 1032.17C303.24 990.03 345.36 916.96 383.52 922.81C417.67 928.05 377.67 1005.71 351.35 1055.1C307.13 1137.96 185.35 1368.15 225.52 1381.9C314.34 1412.34 731.06 1095.6 669.61 919.2C641.13 837.33 460.2 829.53 346.25 829.53C294.42 829.53 181.21 841.76 174.95 802.12C168.19 765.52 346.93 728.69 450.86 722.55ZM1352.13 528.59C1422.18 541.23 1479.27 551.02 1492.38 580.56C1507.09 614.04 1430.81 616.07 1392.37 616.86C1208.1 620.43 1096.99 624.05 1091.44 686.6C1084.2 767.13 1170.18 848.18 1255.08 961.86C1332.64 1065.62 1420.82 1167.99 1395.4 1263.49C1363.72 1382.42 1217.78 1407.59 1078.82 1407.61C945.7 1407.73 819.59 1386.39 766.63 1375.88C700.64 1362.86 710.44 1330.29 728.06 1319.81C747.67 1308.11 859.87 1307.83 937.84 1303.21C1002 1299.43 1188.35 1299.53 1217.39 1251.84C1253.03 1193.47 1165.79 1093.52 1085.7 988.87C985.75 858.28 875.96 723.48 934.06 625.03C1009.25 497.64 1229.2 506.37 1352.13 528.59Z" />
				</g>
			</g>
		</g>
	</g>
</svg>